<?xml version="1.0" encoding="UTF-8" standalone="no"?>
<svg width="74px" height="43px" viewBox="0 0 74 43" version="1.1" xmlns="http://www.w3.org/2000/svg" xmlns:xlink="http://www.w3.org/1999/xlink">
    <!-- Generator: Sketch 39.1 (31720) - http://www.bohemiancoding.com/sketch -->
    <title>Group 25</title>
    <desc>Created with Sketch.</desc>
    <defs>
        <circle id="path-1" cx="69" cy="5.70701551" r="5"></circle>
        <mask id="mask-2" maskContentUnits="userSpaceOnUse" maskUnits="objectBoundingBox" x="0" y="0" width="10" height="10" fill="white">
            <use xlink:href="#path-1"></use>
        </mask>
        <ellipse id="path-3" cx="69" cy="37.7070155" rx="5" ry="5"></ellipse>
        <mask id="mask-4" maskContentUnits="userSpaceOnUse" maskUnits="objectBoundingBox" x="0" y="0" width="10" height="10" fill="white">
            <use xlink:href="#path-3"></use>
        </mask>
        <ellipse id="path-5" cx="5" cy="21.7070155" rx="5" ry="5"></ellipse>
        <mask id="mask-6" maskContentUnits="userSpaceOnUse" maskUnits="objectBoundingBox" x="0" y="0" width="10" height="10" fill="white">
            <use xlink:href="#path-5"></use>
        </mask>
    </defs>
    <g id="Page-1" stroke="none" stroke-width="1" fill="none" fill-rule="evenodd">
        <g id="Interface-|-GUI-Last" transform="translate(-39.000000, -448.000000)">
            <g id="Group-3">
                <g id="Group-8" transform="translate(21.000000, 412.000000)">
                    <g id="Group-7">
                        <g id="Group-25" transform="translate(18.000000, 36.000000)">
                            <path d="M5,21.7070155 L28.7322238,21.7070155 C30.39009,21.7070155 32.6137607,22.7322352 33.686527,23.9824516 L43.5107266,35.4317068 C44.5890466,36.6883954 46.8129792,37.7070865 48.4676205,37.7070175 L68.9965821,37.706161" id="Path-129" stroke="#648AA0" stroke-width="3" stroke-linecap="round" stroke-linejoin="round"></path>
                            <path d="M5,5.7070135 L28.7322238,5.7070135 C30.39009,5.7070135 32.6137607,6.73223324 33.686527,7.98244957 L43.5107266,19.4317048 C44.5890466,20.6883934 46.8129792,21.7070845 48.4676205,21.7070155 L68.9965821,21.706159" id="Path-129" stroke="#FFFFFF" stroke-width="8" stroke-linecap="round" stroke-linejoin="round" transform="translate(36.998291, 13.707015) scale(1, -1) translate(-36.998291, -13.707015) "></path>
                            <use id="Oval-3" stroke="#FFFFFF" mask="url(#mask-2)" stroke-width="4" fill="#242E34" transform="translate(69.000000, 5.707016) scale(1, -1) translate(-69.000000, -5.707016) " xlink:href="#path-1"></use>
                            <use id="Oval-3" stroke="#FFFFFF" mask="url(#mask-4)" stroke-width="4" fill="#242E34" transform="translate(69.000000, 37.707016) scale(1, -1) translate(-69.000000, -37.707016) " xlink:href="#path-3"></use>
                            <use id="Oval-3" stroke="#FFFFFF" mask="url(#mask-6)" stroke-width="4" fill="#242E34" transform="translate(5.000000, 21.707016) scale(1, -1) translate(-5.000000, -21.707016) " xlink:href="#path-5"></use>
                        </g>
                    </g>
                </g>
            </g>
        </g>
    </g>
</svg>