<?xml version="1.0" encoding="UTF-8"?>
<svg width="65px" height="52px" viewBox="0 0 65 52" version="1.1" xmlns="http://www.w3.org/2000/svg" xmlns:xlink="http://www.w3.org/1999/xlink">
    <!-- Generator: Sketch 46 (44423) - http://www.bohemiancoding.com/sketch -->
    <title>Artboard</title>
    <desc>Created with Sketch.</desc>
    <defs></defs>
    <g id="Page-1" stroke="none" stroke-width="1" fill="none" fill-rule="evenodd">
        <g id="Artboard">
            <path d="M2.67835347,29.3745562 C5.71336068,24.5681829 8.29780798,22.2441801 12.8615859,22.2441801 C15.9668793,22.2441801 19.8687514,28.8390612 18.1498894,35.3788657 C16.5772737,41.3622421 10.5764954,44.5175088 7.85676731,44.4082577 C2.1643882,44.1795955 -0.356653742,34.1809296 2.67835347,29.3745562 Z" id="Rectangle-5" fill-opacity="0.6" fill="#3CD9D9" transform="translate(9.976114, 33.327591) rotate(125.000000) translate(-9.976114, -33.327591) "></path>
            <path d="M48.4355056,12.6970883 C53.7383547,9.90300836 59.0136731,9.22247255 63.9668145,12.6970885 C66.0661411,14.1697606 66.1337204,20.1099269 62.8588294,24.2718523 C60.4296735,27.3589675 55.173124,29.1576323 52.7425002,29.060253 C47.0350067,28.8315908 41.7283848,16.2310812 48.4355056,12.6970883 Z" id="Rectangle-5" fill-opacity="0.6" fill="#3CD9D9" transform="translate(55.375017, 19.701728) rotate(-55.000000) translate(-55.375017, -19.701728) "></path>
            <path d="M30.3973397,41.5869354 C31.7793604,37.7096442 36.3758673,35.2822344 39.9208681,35.2822344 C43.4658688,35.2822345 47.6254027,38.6188146 48.7598426,41.5869354 C49.8942824,44.5550563 47.09117,47.626925 44.965633,48.4812346 C42.840096,49.3355441 37.7548708,51.0373109 34.7081682,49.9065855 C31.6614656,48.7758602 29.0153191,45.4642266 30.3973397,41.5869354 Z" id="Rectangle-5" fill-opacity="0.6" fill="#3CD9D9" transform="translate(39.520886, 42.782234) rotate(164.000000) translate(-39.520886, -42.782234) "></path>
            <path d="M9.43655637,8.43917422 C10.6003632,5.33734125 14.4711059,3.39541339 17.4563697,3.39541343 C20.4416335,3.39541346 23.9443988,6.06467753 24.8997166,8.43917422 C25.8550344,10.8136709 23.4945187,13.2711659 21.7045928,13.9546135 C19.9146669,14.6380612 15.632372,15.9994746 13.0667277,15.0948943 C10.5010834,14.190314 8.2727495,11.5410072 9.43655637,8.43917422 Z" id="Rectangle-5" fill-opacity="0.6" fill="#3CD9D9" transform="translate(17.119543, 9.395413) rotate(-18.000000) translate(-17.119543, -9.395413) "></path>
            <path d="M30.2297481,5.1558617 C31.0298653,3.08797305 33.6910009,1.79335448 35.7433698,1.7933545 C37.7957386,1.79335452 40.2038898,3.5728639 40.8606708,5.1558617 C41.5174518,6.73885949 39.8945972,8.37718949 38.6640231,8.83282124 C37.4334491,9.288453 34.4893713,10.1960619 32.7254909,9.59300842 C30.9616105,8.98995491 29.4296309,7.22375035 30.2297481,5.1558617 Z" id="Rectangle-5" fill-opacity="0.6" fill="#3CD9D9" transform="translate(35.511801, 5.793355) rotate(-68.000000) translate(-35.511801, -5.793355) "></path>
            <circle id="Oval-3" fill-opacity="0.9" fill="#F9BD38" transform="translate(29.238825, 24.926848) rotate(125.000000) translate(-29.238825, -24.926848) " cx="29.2388248" cy="24.9268481" r="6.40957602"></circle>
        </g>
    </g>
</svg>