<?xml version="1.0" encoding="UTF-8" standalone="no"?>
<svg width="135px" height="78px" viewBox="0 0 135 78" version="1.1" xmlns="http://www.w3.org/2000/svg" xmlns:xlink="http://www.w3.org/1999/xlink">
    <!-- Generator: Sketch 41.2 (35397) - http://www.bohemiancoding.com/sketch -->
    <title>Isoline</title>
    <desc>Created with Sketch.</desc>
    <defs>
        <path d="M41.3837432,28.1676471 C55.2271904,21.0502748 57.6580559,-1.28280148e-09 69.6037419,0 C85.1683835,1.67142706e-09 68.9987666,19.3167429 81.9292782,28.1676475 C91.474834,34.7015579 127.353435,21.7852014 133.92418,31.8073568 C142.243345,44.4963208 100.369352,44.4482298 75.2855896,53.2836148 C61.7831496,58.03965 62.8555943,78.5703215 47.9557954,77.9878494 C33.0559965,77.4053773 51.8932266,54.3455902 41.3837445,51.6609026 C18.9354483,45.926399 6.95744668e-07,56.2881492 0,41.6109515 C-5.70451386e-07,29.5768992 23.8743497,37.1698031 41.3837432,28.1676471 Z" id="path-1"></path>
        <mask id="mask-2" maskContentUnits="userSpaceOnUse" maskUnits="objectBoundingBox" x="0" y="0" width="135" height="78" fill="white">
            <use xlink:href="#path-1"></use>
        </mask>
    </defs>
    <g id="Page-1" stroke="none" stroke-width="1" fill="none" fill-rule="evenodd">
        <g id="Artboard">
            <g id="Isoline">
                <use id="Rectangle-5" stroke="#3DBEE7" mask="url(#mask-2)" stroke-width="4" fill-opacity="0.6" fill="#3DBEE7" xlink:href="#path-1"></use>
                <circle id="Oval-3" fill-opacity="0.9" fill="#F9BD38" cx="62" cy="40" r="10"></circle>
            </g>
        </g>
    </g>
</svg>